<?xml version="1.0"?>
<svg xmlns="http://www.w3.org/2000/svg" viewBox="0 0 512 512" width="512" height="512"><g id="Outline"><path d="M216,16a23.985,23.985,0,0,0-17.883,39.985A23.983,23.983,0,0,0,198.131,88a23.943,23.943,0,0,0,0,32A23.984,23.984,0,0,0,216,160h32v65.013A32.115,32.115,0,0,0,225.013,248H134.624a24,24,0,0,0-45.248,0H72v16H89.376a24.022,24.022,0,0,0,5.051,8.322L16.972,420.175l-.017.034-.041.079h0A7.967,7.967,0,0,0,16,424a72.081,72.081,0,0,0,72,72h48a72.081,72.081,0,0,0,72-72,7.967,7.967,0,0,0-.916-3.711h0l-.038-.073-.022-.043-77.45-147.853A24.017,24.017,0,0,0,134.624,264h90.389a32,32,0,0,0,61.974,0h90.389a24.017,24.017,0,0,0,5.048,8.319l-77.45,147.853-.022.043-.038.073h0A7.967,7.967,0,0,0,304,424a72.081,72.081,0,0,0,72,72h48a72.081,72.081,0,0,0,72-72,7.967,7.967,0,0,0-.916-3.711h0l-.038-.073-.022-.043-77.45-147.853A24.017,24.017,0,0,0,422.624,264H440V248H422.624a24,24,0,0,0-45.248,0H286.987A32.115,32.115,0,0,0,264,225.013V153.869A23.883,23.883,0,0,0,265.869,152H310.7a163.581,163.581,0,0,0,50.555-8H400a8,8,0,0,0,8,8h88V136H416V32h80V16ZM112,248a8,8,0,1,1-8,8A8.009,8.009,0,0,1,112,248Zm0,32a24.1,24.1,0,0,0,3.409-.246L186.779,416H37.222L108.6,279.754A24.032,24.032,0,0,0,112,280Zm24,200H88a56.086,56.086,0,0,1-55.43-48H191.43A56.086,56.086,0,0,1,136,480ZM400,280a24.1,24.1,0,0,0,3.409-.246L474.779,416H325.221l71.37-136.246A24.1,24.1,0,0,0,400,280Zm24,200H376a56.086,56.086,0,0,1-55.43-48H479.43A56.086,56.086,0,0,1,424,480ZM400,248a8,8,0,1,1-8,8A8.009,8.009,0,0,1,400,248Zm-128,8a16,16,0,1,1-16-16A16.019,16.019,0,0,1,272,256ZM248,96a8,8,0,0,1,0,16H216a8,8,0,0,1,0-16ZM208,72a7.981,7.981,0,0,1,8-8h16V80H216A8.009,8.009,0,0,1,208,72Zm2.328-37.653A7.98,7.98,0,0,1,216,32h17.376A23.889,23.889,0,0,0,232,40v8H216a8.008,8.008,0,0,1-5.672-13.653ZM216,144a8,8,0,0,1,0-16h32a8,8,0,0,1,0,16Zm56-8a23.9,23.9,0,0,0-6.131-16,23.943,23.943,0,0,0,0-32,23.516,23.516,0,0,0,3.212-4.563A39.942,39.942,0,0,0,279.2,64h3.872A59.442,59.442,0,0,0,336,96V80a43.537,43.537,0,0,1-39.155-24.2l-1.689-3.378A8,8,0,0,0,288,48H272a8,8,0,0,0-8,8,24.042,24.042,0,0,1-16,22.629V40a8.009,8.009,0,0,1,8-8h96v98.118A147.62,147.62,0,0,1,310.7,136Zm96-8V32h32v96Z"/><rect x="448" y="104" width="16" height="16"/><rect x="480" y="104" width="16" height="16"/><path d="M58,208.373A72.007,72.007,0,0,0,55.8,301L68.279,291A56.006,56.006,0,0,1,70,218.961Z"/></g></svg>
