<svg id="Capa_1" enable-background="new 0 0 512 512" height="512" viewBox="0 0 512 512" width="512" xmlns="http://www.w3.org/2000/svg"><g><g><g><path d="m256.18 459.5c-4.242 0-8.095-2.784-9.46-6.79-1.36-3.99.009-8.582 3.373-11.141 3.196-2.432 7.616-2.712 11.097-.713 3.561 2.045 5.53 6.222 4.859 10.273-.789 4.761-5.04 8.371-9.869 8.371z"/></g><path d="m502 353.503h-25.617v-251.684c0-27.194-22.125-49.319-49.319-49.319h-342.127c-27.194 0-49.319 22.125-49.319 49.319v251.684h-25.618c-5.523 0-10 4.478-10 10v32.398c0 35.069 28.53 63.599 63.599 63.599h147.195c5.523 0 10-4.478 10-10s-4.477-10-10-10h-147.195c-24.04 0-43.599-19.559-43.599-43.599v-22.398h121.319v31.936c0 5.522 4.478 10 10 10h209.361c5.522 0 10-4.478 10-10v-31.936h121.32v22.398c0 24.04-19.559 43.599-43.599 43.599h-147.195c-5.522 0-10 4.478-10 10s4.478 10 10 10h147.195c35.068 0 63.599-28.53 63.599-63.599v-32.398c0-5.523-4.478-10-10-10zm-151.319 41.936h-189.362v-21.936h189.361v21.936zm-295.064-41.936v-251.684c0-16.167 13.152-29.319 29.319-29.319h342.127c16.167 0 29.319 13.152 29.319 29.319v251.684z"/><g><g><path d="m331.064 331.511h-150.128c-5.522 0-10-4.478-10-10s4.478-10 10-10h150.127c5.522 0 10 4.478 10 10 .001 5.522-4.477 10-9.999 10z"/></g></g><path d="m356.797 190.415c0-55.58-45.217-100.797-100.797-100.797s-100.797 45.217-100.797 100.797c0 35.513 19.006 68.777 49.607 86.839.029.017.057.035.086.052 15.431 9.098 33.102 13.906 51.104 13.906 17.996 0 35.664-4.809 51.094-13.906.03-.018.06-.036.091-.055 30.605-18.065 49.612-51.328 49.612-86.836zm-136.821 72.335v-30.745c0-1.664 1.354-3.018 3.018-3.018h66.005c1.663 0 3.017 1.354 3.017 3.018v30.746c-11.129 5.55-23.47 8.461-36.015 8.461-12.551 0-24.895-2.912-36.025-8.462zm10.214-80.213c0-14.584 11.865-26.448 26.449-26.448s26.448 11.864 26.448 26.448-11.864 26.448-26.448 26.448c-14.583 0-26.449-11.864-26.449-26.448zm81.825 66.067v-16.599c0-10.848-7.543-19.967-17.659-22.388 5.493-7.629 8.732-16.983 8.732-27.08 0-25.611-20.837-46.448-46.448-46.448-25.612 0-46.449 20.837-46.449 46.448 0 9.992 3.172 19.257 8.561 26.842-10.673 1.996-18.776 11.382-18.776 22.626v16.597c-15.588-15.071-24.773-36.086-24.773-58.187 0-44.552 36.245-80.797 80.797-80.797s80.797 36.245 80.797 80.797c0 22.1-9.188 43.117-24.782 58.189z"/></g></g></svg>