<?xml version="1.0" encoding="utf-8"?><svg xmlns="http://www.w3.org/2000/svg" xmlns:xlink="http://www.w3.org/1999/xlink"><symbol viewBox="0 -93 512 512" id="amount" xmlns="http://www.w3.org/2000/svg"><path d="M511.992 69.133c0-39.715-98.597-62.856-208.469-68.02A1019.284 1019.284 0 00256.008 0c-15.899 0-31.824.367-47.531 1.113C98.605 6.285 0 29.426 0 69.133v1.441C0 211.727 114.844 326.57 256.004 326.57 397.156 326.57 512 211.727 512 70.574v-1.441c-.008.008-.008.008-.008 0zm-19.34.008c-.011 20.308-92.195 49.793-236.656 49.793-144.46 0-236.637-29.496-236.656-49.793.012-20.309 92.207-49.793 236.668-49.793 144.46 0 236.633 29.488 236.644 49.793zM256.004 307.227c-121.09 0-221.172-91.43-234.973-208.864 41.57 26.293 138.7 39.899 234.973 39.899 96.277 0 193.39-13.617 234.965-39.899-13.809 117.442-113.883 208.864-234.965 208.864zm0 0"/></symbol><symbol viewBox="0 0 16 16" id="arrows-down" xmlns="http://www.w3.org/2000/svg"><path d="M3 2v2l5 5 5-5V2L8 7z"/><path d="M3 7v2l5 5 5-5V7l-5 5z"/></symbol><symbol viewBox="0 0 16 16" id="arrows-up" xmlns="http://www.w3.org/2000/svg"><path d="M13 14v-2L8 7l-5 5v2l5-5z"/><path d="M13 9V7L8 2 3 7v2l5-5z"/></symbol><symbol viewBox="0 0 512 512" id="basket" xmlns="http://www.w3.org/2000/svg"><path d="M488.542 174.916H293.737V27.028c0-10.686-8.693-19.378-19.378-19.378h-36.717c-10.686 0-19.378 8.693-19.378 19.378v147.888H23.458C10.524 174.916 0 185.439 0 198.375v50.57c0 12.936 10.524 23.458 23.458 23.458h3.375l26.437 187.89c3.534 25.117 25.327 44.057 50.691 44.057h304.076c25.365 0 47.157-18.941 50.691-44.057l26.438-187.891h3.375c12.936 0 23.458-10.523 23.458-23.458v-50.57c.001-12.935-10.521-23.458-23.457-23.458zM238.661 28.048h34.677v194.805h-34.677V28.048zM438.53 457.451c-2.125 15.108-15.235 26.502-30.492 26.502H103.961c-15.257 0-28.366-11.393-30.492-26.502L47.432 272.402h417.135L438.53 457.451zm53.072-208.507a3.064 3.064 0 01-3.06 3.06H23.458a3.064 3.064 0 01-3.06-3.06v-50.57a3.064 3.064 0 013.06-3.06h194.805v28.558c0 10.686 8.693 19.378 19.378 19.378h36.717c10.686 0 19.378-8.693 19.378-19.378v-28.558h194.805a3.064 3.064 0 013.06 3.06v50.57z"/><path d="M110.151 296.287c-5.633 0-10.199 4.567-10.199 10.199v142.789c0 5.632 4.566 10.199 10.199 10.199s10.199-4.567 10.199-10.199V306.486c.001-5.632-4.566-10.199-10.199-10.199zm58.34 0c-5.633 0-10.199 4.567-10.199 10.199v142.789c0 5.632 4.566 10.199 10.199 10.199s10.199-4.567 10.199-10.199V306.486c0-5.632-4.566-10.199-10.199-10.199zm58.339 0c-5.633 0-10.199 4.567-10.199 10.199v142.789c0 5.632 4.566 10.199 10.199 10.199s10.199-4.567 10.199-10.199V306.486c0-5.632-4.566-10.199-10.199-10.199zm58.34 0c-5.632 0-10.199 4.567-10.199 10.199v142.789c0 5.632 4.566 10.199 10.199 10.199 5.632 0 10.199-4.567 10.199-10.199V306.486c0-5.632-4.567-10.199-10.199-10.199zm58.339 0c-5.632 0-10.199 4.567-10.199 10.199v142.789c0 5.632 4.566 10.199 10.199 10.199 5.632 0 10.199-4.567 10.199-10.199V306.486c0-5.632-4.567-10.199-10.199-10.199zm58.34 0c-5.632 0-10.199 4.567-10.199 10.199v8.164c0 5.632 4.567 10.199 10.199 10.199s10.199-4.567 10.199-10.199v-8.164c0-5.632-4.567-10.199-10.199-10.199zm0 46.917c-5.632 0-10.199 4.567-10.199 10.199v95.871c0 5.632 4.567 10.199 10.199 10.199s10.199-4.567 10.199-10.199v-95.871c0-5.632-4.567-10.199-10.199-10.199z"/></symbol><symbol viewBox="0 0 512 512" id="check" xmlns="http://www.w3.org/2000/svg"><path d="M235.1 386.3c-5.7 0-11.1-2.4-14.9-6.6l-104.1-116c-7.4-8.2-6.7-20.9 1.5-28.2 8.2-7.4 20.9-6.7 28.2 1.5l86.8 96.8 131.6-199.1c6.1-9.2 18.5-11.7 27.7-5.7 9.2 6.1 11.7 18.5 5.7 27.7L251.8 377.4c-3.4 5.2-9 8.5-15.2 8.9h-1.5z"/></symbol><symbol viewBox="0 0 30 30" id="clock" xmlns="http://www.w3.org/2000/svg"><path d="M15 4a1 1 0 00-1 1v9H9a1 1 0 100 2h6a1 1 0 001-1V5a1 1 0 00-1-1zm0-4C6.716 0 0 6.716 0 15s6.716 15 15 15 15-6.716 15-15S23.284 0 15 0zm0 28C7.82 28 2 22.18 2 15S7.82 2 15 2s13 5.82 13 13-5.82 13-13 13z"/></symbol><symbol viewBox="0 0 512 512" id="delivery" xmlns="http://www.w3.org/2000/svg"><path d="M506.922 249.331l-29.541-17.153-16.877-72.109c-4.493-19.193-21.397-32.597-41.107-32.597h-84.891v-13.467c0-5.633-4.567-10.199-10.199-10.199H10.199C4.567 103.806 0 108.372 0 114.005v243.111c0 5.633 4.567 10.199 10.199 10.199h32.779c4.74 23.293 25.38 40.877 50.051 40.877s45.312-17.584 50.052-40.877h206.476v.001c4.74 23.293 25.38 40.877 50.051 40.877 24.671 0 45.312-17.584 50.052-40.877h52.142c5.632 0 10.199-4.566 10.199-10.199v-98.966a10.203 10.203 0 00-5.079-8.82zM93.029 387.796c-16.915 0-30.677-13.763-30.677-30.678s13.762-30.678 30.677-30.678c16.916 0 30.678 13.762 30.678 30.678s-13.762 30.678-30.678 30.678zm221.08-77.452h-91.994c-5.632 0-10.199 4.566-10.199 10.199s4.567 10.199 10.199 10.199h91.994v16.176H143.081c-4.74-23.293-25.381-40.877-50.052-40.877s-45.311 17.583-50.051 40.877h-22.58v-52.75h293.711v16.176zm0-172.672V273.77H20.398V124.205h293.711v13.467zm79.562 10.2h25.728c10.187-.001 18.924 6.927 21.244 16.846l14.949 63.872h-61.92v-80.718zm5.937 239.924c-16.228 0-29.546-12.669-30.602-28.635a10.258 10.258 0 000-4.086c1.056-15.966 14.374-28.635 30.602-28.635 16.916 0 30.678 13.762 30.678 30.678s-13.762 30.678-30.678 30.678zm91.994-89.284h-19.403v-10.797h19.403v10.797zm0-31.195H462c-5.632 0-10.199 4.566-10.199 10.199v31.195c0 5.633 4.567 10.199 10.199 10.199h29.602v28.008H449.66c-4.74-23.293-25.381-40.877-50.052-40.877s-45.311 17.583-50.051 40.877h-15.05V147.871h38.766v90.918c0 5.633 4.567 10.199 10.199 10.199h82.235l25.894 15.037v3.292z"/><path d="M187.693 310.344h-8.606c-5.632 0-10.199 4.566-10.199 10.199s4.566 10.199 10.199 10.199h8.606c5.632 0 10.199-4.566 10.199-10.199s-4.567-10.199-10.199-10.199z"/></symbol><symbol viewBox="0 0 24 24" id="diameter" xmlns="http://www.w3.org/2000/svg"><path d="M12 .6C5.714.6.6 5.714.6 12S5.714 23.4 12 23.4 23.4 18.286 23.4 12 18.286.6 12 .6zM1.4 12c0-5.709 4.541-10.367 10.2-10.58v21.16C5.941 22.367 1.4 17.709 1.4 12zm11 10.58V1.42c5.659.213 10.2 4.871 10.2 10.58s-4.541 10.367-10.2 10.58z"/></symbol><symbol viewBox="0 0 512 512" id="equal" xmlns="http://www.w3.org/2000/svg"><path d="M216 16a23.985 23.985 0 00-17.883 39.985A23.983 23.983 0 00198.131 88a23.943 23.943 0 000 32A23.984 23.984 0 00216 160h32v65.013A32.115 32.115 0 00225.013 248h-90.389a24 24 0 00-45.248 0H72v16h17.376a24.022 24.022 0 005.051 8.322L16.972 420.175l-.017.034-.041.079A7.967 7.967 0 0016 424a72.081 72.081 0 0072 72h48a72.081 72.081 0 0072-72 7.967 7.967 0 00-.916-3.711l-.038-.073-.022-.043-77.45-147.853a24.017 24.017 0 005.05-8.32h90.389a32 32 0 0061.974 0h90.389a24.017 24.017 0 005.048 8.319l-77.45 147.853-.022.043-.038.073A7.967 7.967 0 00304 424a72.081 72.081 0 0072 72h48a72.081 72.081 0 0072-72 7.967 7.967 0 00-.916-3.711l-.038-.073-.022-.043-77.45-147.853a24.017 24.017 0 005.05-8.32H440v-16h-17.376a24 24 0 00-45.248 0h-90.389A32.115 32.115 0 00264 225.013v-71.144a23.883 23.883 0 001.869-1.869H310.7a163.581 163.581 0 0050.555-8H400a8 8 0 008 8h88v-16h-80V32h80V16zM112 248a8 8 0 11-8 8 8.009 8.009 0 018-8zm0 32a24.1 24.1 0 003.409-.246L186.779 416H37.222L108.6 279.754a24.032 24.032 0 003.4.246zm24 200H88a56.086 56.086 0 01-55.43-48h158.86A56.086 56.086 0 01136 480zm264-200a24.1 24.1 0 003.409-.246L474.779 416H325.221l71.37-136.246A24.1 24.1 0 00400 280zm24 200h-48a56.086 56.086 0 01-55.43-48h158.86A56.086 56.086 0 01424 480zm-24-232a8 8 0 11-8 8 8.009 8.009 0 018-8zm-128 8a16 16 0 11-16-16 16.019 16.019 0 0116 16zM248 96a8 8 0 010 16h-32a8 8 0 010-16zm-40-24a7.981 7.981 0 018-8h16v16h-16a8.009 8.009 0 01-8-8zm2.328-37.653A7.98 7.98 0 01216 32h17.376A23.889 23.889 0 00232 40v8h-16a8.008 8.008 0 01-5.672-13.653zM216 144a8 8 0 010-16h32a8 8 0 010 16zm56-8a23.9 23.9 0 00-6.131-16 23.943 23.943 0 000-32 23.516 23.516 0 003.212-4.563A39.942 39.942 0 00279.2 64h3.872A59.442 59.442 0 00336 96V80a43.537 43.537 0 01-39.155-24.2l-1.689-3.378A8 8 0 00288 48h-16a8 8 0 00-8 8 24.042 24.042 0 01-16 22.629V40a8.009 8.009 0 018-8h96v98.118A147.62 147.62 0 01310.7 136zm96-8V32h32v96z"/><path d="M448 104h16v16h-16zm32 0h16v16h-16zM58 208.373A72.007 72.007 0 0055.8 301l12.479-10A56.006 56.006 0 0170 218.961z"/></symbol><symbol viewBox="0 0 612 612" id="favourite" xmlns="http://www.w3.org/2000/svg"><path d="M435.575 23.05c-47.689 0-94.796 19.225-129.574 52.202-34.764-32.975-81.885-52.202-129.593-52.202C77.488 23.05 0 100.545 0 199.474c0 55.366 22.801 108.911 71.755 168.507 42.707 51.993 102.165 105.723 181.461 175.893l39.959 39.78a18.134 18.134 0 0012.829 5.297c4.641 0 9.28-1.767 12.829-5.298l39.949-39.78c79.29-70.152 138.74-123.871 181.472-175.891C589.202 308.388 612 254.843 612 199.474c0-98.929-77.494-176.424-176.425-176.424zM334.284 516.994c-.267.236-.527.48-.782.732L306 545.11l-27.509-27.384a16.278 16.278 0 00-.779-.73C123.572 380.6 36.363 298.603 36.363 199.474c0-78.54 61.514-140.06 140.046-140.06 43.19 0 87.531 20.695 115.712 54.01A18.19 18.19 0 00306 119.862h.003a18.189 18.189 0 0013.879-6.436c28.195-33.316 72.528-54.011 115.694-54.011 78.538 0 140.06 61.52 140.06 140.06.001 99.16-87.208 181.145-241.352 317.519z"/><path d="M187.246 87.288c-69.143 0-123.306 54.169-123.306 123.319 0 10.042 8.141 18.182 18.182 18.182s18.182-8.139 18.182-18.182c0-48.761 38.189-86.956 86.943-86.956 10.041 0 18.182-8.139 18.182-18.182-.002-10.04-8.143-18.181-18.183-18.181z"/></symbol><symbol viewBox="0 0 512 512" id="fb" xmlns="http://www.w3.org/2000/svg"><path d="M258.8 507.2C120.4 507.8 6.6 392.6 9.9 251.9 13 117.9 124 7.2 262 8.7 398.7 10.2 511.8 124 508.1 264.9c-3.5 133.4-113.6 243-249.3 242.3zM40.2 258.3C41.3 383.6 142.9 480.1 262.9 478c116.2-2.1 214.7-96.8 214.7-220 0-125.3-102.4-222.2-222.8-219.9C138.6 40.2 41 135.2 40.2 258.3z"/><path d="M206.8 433.4V257.1h-38.5v-59.4c1.7-.1 3.4-.3 5.2-.3 9.3 0 18.7-.2 28 .1 4.1.1 5.5-1 5.4-5.2-.2-15.2-.2-30.3-.1-45.5.1-17.1 4.9-32.6 17.1-45 11.8-12 26.9-18.5 43.3-19.5 26.4-1.5 52.9-1.3 79.4-1.8.3 0 .6.3 1.2.6v61c-1.9.1-3.7.2-5.4.2h-36c-12.1.1-19.2 7.3-19.2 19.2 0 11.3 0 22.7.1 34 0 .3.2.6.5 1.7h60.8c-2.6 20.3-5 39.7-7.6 59.8h-54v176.6c-26.9-.2-53.1-.2-80.2-.2z"/></symbol><symbol viewBox="0 0 512 512" id="howOrder" xmlns="http://www.w3.org/2000/svg"><path d="M458.737 422.218l-22.865-288.116c-1.425-18.562-17.123-33.103-35.739-33.103H354.97v-2.03C354.97 44.397 310.573 0 256.001 0s-98.969 44.397-98.969 98.969v2.03H111.87c-18.617 0-34.316 14.54-35.736 33.064L53.262 422.257c-1.77 23.075 6.235 46.048 21.961 63.026C90.949 502.261 113.242 512 136.385 512h239.231c23.142 0 45.436-9.738 61.163-26.717 15.726-16.979 23.73-39.951 21.958-63.065zM187.022 98.969c0-38.035 30.945-68.979 68.979-68.979s68.979 30.945 68.979 68.979v2.03H187.022v-2.03zm227.754 365.936c-10.218 11.03-24.124 17.105-39.16 17.105h-239.23c-15.036 0-28.942-6.075-39.16-17.105-10.217-11.031-15.211-25.363-14.063-40.315l22.87-288.195c.232-3.032 2.796-5.406 5.837-5.406h45.162v36.935c0 8.281 6.714 14.995 14.995 14.995 8.281 0 14.995-6.714 14.995-14.995v-36.935H324.98v36.935c0 8.281 6.714 14.995 14.995 14.995s14.995-6.714 14.995-14.995v-36.935h45.163c3.04 0 5.604 2.375 5.84 5.446l22.865 288.115c1.15 14.992-3.845 29.323-14.062 40.355z"/><path d="M323.556 254.285c-5.854-5.856-15.349-5.856-21.204 0l-66.956 66.956-25.746-25.746c-5.855-5.856-15.35-5.856-21.206 0s-5.856 15.35 0 21.206l36.349 36.349c2.928 2.928 6.766 4.393 10.602 4.393s7.675-1.464 10.602-4.393l77.558-77.558c5.857-5.857 5.857-15.351.001-21.207z"/></symbol><symbol viewBox="0 0 512 512" id="instagram" xmlns="http://www.w3.org/2000/svg"><path d="M505 257c0 34.8-.7 69.7.2 104.5 1.5 61.6-37.2 109.2-86.5 130.4-19.8 8.5-40.6 13-62.1 13-67.3.1-134.7 1-202-.3-50.7-1-92.4-22.2-122.3-64-15.7-22-23.2-47-23.2-74.1v-215c0-58.5 28.5-99.4 79.1-126C110.2 14 134.1 9.1 159 9c65.3 0 130.7-.4 196 .2 50.7.4 93 19.8 124.2 60.6 17.4 22.8 25.8 49 25.8 77.8V257zm-459 0v110c0 16.4 3.8 31.8 12.3 45.7 22.3 36.5 56 54.3 97.8 55 67.1 1 134.3.4 201.5.2 16.5 0 32.5-3.4 47.4-10.5 40.6-19.4 63.3-50.3 63.1-96.7-.4-71-.1-142-.1-213 0-20.1-5.7-38.5-17.6-54.7-23-31.1-54.8-46.4-92.8-46.8-67-.8-134-.3-201-.2-14.3 0-28.1 2.9-41.5 7.9-36.8 13.7-71 48.4-69.4 99.5 1.2 34.6.3 69.1.3 103.6z"/><path d="M257.6 363c-64.5 0-116.5-51.4-116.6-115.4-.1-63 52.3-114.6 116.4-114.6 64.3-.1 116.5 51.4 116.6 114.9 0 63.4-52.1 115-116.4 115.1zm0-37c43.9 0 79.5-35.1 79.4-78.3-.1-42.8-35.7-77.8-79.4-77.8-43.9 0-79.7 34.9-79.7 78 .1 43.2 35.8 78.2 79.7 78.1zM387.5 98c13.5 0 24.5 11.5 24.5 25.6-.1 14.1-11.2 25.5-24.7 25.4-13.3-.1-24.2-11.5-24.2-25.3C363 109.6 374 98 387.5 98z"/></symbol><symbol viewBox="0 0 306 306" id="left" xmlns="http://www.w3.org/2000/svg"><path d="M247.35 35.7L211.65 0l-153 153 153 153 35.7-35.7L130.05 153z"/></symbol><symbol viewBox="0 0 60 60" id="location" xmlns="http://www.w3.org/2000/svg"><path d="M31.354 26c3.86 0 7-3.141 7-7s-3.14-7-7-7-7 3.141-7 7 3.14 7 7 7zm0-12c2.757 0 5 2.243 5 5s-2.243 5-5 5-5-2.243-5-5 2.243-5 5-5z"/><path d="M31.177 54.757L46.518 32.6c5.754-7.672 4.921-20.28-1.781-26.982C41.115 1.995 36.299 0 31.177 0s-9.938 1.995-13.56 5.617c-6.703 6.702-7.536 19.312-1.804 26.952l15.364 22.188zM19.031 7.031C22.275 3.787 26.589 2 31.177 2s8.901 1.787 12.146 5.031c6.049 6.049 6.794 17.437 1.573 24.399L31.177 51.243 17.436 31.4c-5.2-6.932-4.455-18.32 1.595-24.369zM1 57.586l-.707.707a.999.999 0 101.414 1.414L2.414 59A.999.999 0 101 57.586zM8.616 52a1 1 0 100 2h1.82a1 1 0 100-2h-1.82zm-2.341 1.725a.999.999 0 00-1.414 0l-1.287 1.287a.999.999 0 101.414 1.414l1.287-1.287a.999.999 0 000-1.414zM19.539 52a1 1 0 100 2h1.82a1 1 0 100-2h-1.82zm-5.462 0a1 1 0 100 2h1.821a1 1 0 100-2h-1.821zM25 52a1 1 0 100 2h1a1 1 0 100-2h-1z"/><path d="M1 53.758a.997.997 0 00.707-.293l3.876-3.876c.095-.095.199-.18.349-.272l.193-.104c.035-.021.069-.042.106-.058l.374-.115c.131-.025.263-.04.395-.04h15a1 1 0 100-2H7c-.256 0-.519.026-.791.079a2.798 2.798 0 00-.279.079l-.131.039c-.112.03-.224.064-.326.106a2.884 2.884 0 00-.342.173l-.095.052a2.344 2.344 0 00-.257.146 3.996 3.996 0 00-.611.501L.292 52.051A.999.999 0 001 53.758zm57.293-5.051a.997.997 0 00.707-.293l.707-.707a.999.999 0 10-1.414-1.414l-.707.707a.999.999 0 00.707 1.707zm-3.727 1.313l-1.51 1.51a.999.999 0 101.414 1.414l1.51-1.51a.999.999 0 10-1.414-1.414zM47.675 52a1 1 0 100 2h2.135a1 1 0 100-2h-2.135zm-6.405 0a1 1 0 100 2h2.135a1 1 0 100-2H41.27zM36 52a1 1 0 100 2h1a1 1 0 100-2h-1z"/><path d="M58.293 52.535l-3.876 3.876a1.83 1.83 0 01-.347.271l-.188.102c-.04.022-.079.047-.119.063-.031.013-.064.02-.097.029l-.278.084c-.127.026-.257.04-.388.04H7.89l-1.517 1.221a1 1 0 001.253 1.558L8.595 59H53c.26 0 .524-.026.779-.078.102-.02.198-.049.295-.081l.125-.037c.112-.031.223-.064.335-.111.117-.049.227-.108.337-.171l.099-.054c.086-.043.17-.088.247-.14.221-.147.428-.316.614-.503l3.876-3.876a.999.999 0 10-1.414-1.414zM39 48a1 1 0 001 1h12.172l3.293-3.293a.999.999 0 10-1.414-1.414L51.344 47H40a1 1 0 00-1 1z"/></symbol><symbol viewBox="0 0 512 512" id="login" xmlns="http://www.w3.org/2000/svg"><path d="M256.18 459.5c-4.242 0-8.095-2.784-9.46-6.79-1.36-3.99.009-8.582 3.373-11.141 3.196-2.432 7.616-2.712 11.097-.713 3.561 2.045 5.53 6.222 4.859 10.273-.789 4.761-5.04 8.371-9.869 8.371z"/><path d="M502 353.503h-25.617V101.819c0-27.194-22.125-49.319-49.319-49.319H84.937c-27.194 0-49.319 22.125-49.319 49.319v251.684H10c-5.523 0-10 4.478-10 10v32.398C0 430.97 28.53 459.5 63.599 459.5h147.195c5.523 0 10-4.478 10-10s-4.477-10-10-10H63.599C39.559 439.5 20 419.941 20 395.901v-22.398h121.319v31.936c0 5.522 4.478 10 10 10H360.68c5.522 0 10-4.478 10-10v-31.936H492v22.398c0 24.04-19.559 43.599-43.599 43.599H301.206c-5.522 0-10 4.478-10 10s4.478 10 10 10h147.195c35.068 0 63.599-28.53 63.599-63.599v-32.398c0-5.523-4.478-10-10-10zm-151.319 41.936H161.319v-21.936H350.68v21.936zM55.617 353.503V101.819c0-16.167 13.152-29.319 29.319-29.319h342.127c16.167 0 29.319 13.152 29.319 29.319v251.684z"/><path d="M331.064 331.511H180.936c-5.522 0-10-4.478-10-10s4.478-10 10-10h150.127c5.522 0 10 4.478 10 10 .001 5.522-4.477 10-9.999 10zm25.733-141.096c0-55.58-45.217-100.797-100.797-100.797s-100.797 45.217-100.797 100.797c0 35.513 19.006 68.777 49.607 86.839l.086.052c15.431 9.098 33.102 13.906 51.104 13.906 17.996 0 35.664-4.809 51.094-13.906l.091-.055c30.605-18.065 49.612-51.328 49.612-86.836zM219.976 262.75v-30.745a3.022 3.022 0 013.018-3.018h66.005a3.021 3.021 0 013.017 3.018v30.746a80.739 80.739 0 01-36.015 8.461 80.766 80.766 0 01-36.025-8.462zm10.214-80.213c0-14.584 11.865-26.448 26.449-26.448s26.448 11.864 26.448 26.448-11.864 26.448-26.448 26.448c-14.583 0-26.449-11.864-26.449-26.448zm81.825 66.067v-16.599c0-10.848-7.543-19.967-17.659-22.388a46.196 46.196 0 008.732-27.08c0-25.611-20.837-46.448-46.448-46.448-25.612 0-46.449 20.837-46.449 46.448a46.196 46.196 0 008.561 26.842c-10.673 1.996-18.776 11.382-18.776 22.626v16.597c-15.588-15.071-24.773-36.086-24.773-58.187 0-44.552 36.245-80.797 80.797-80.797s80.797 36.245 80.797 80.797c0 22.1-9.188 43.117-24.782 58.189z"/></symbol><symbol viewBox="0 0 853.333 853.333" id="logo" xmlns="http://www.w3.org/2000/svg"><path d="M111.38 293.46a5.36 5.36 0 01-2.153-.453 5.36 5.36 0 01-2.744-7.06 350.71 350.71 0 014.475-9.738 5.347 5.347 0 017.14-2.509 5.349 5.349 0 012.512 7.137 334.577 334.577 0 00-4.328 9.424 5.355 5.355 0 01-4.902 3.199zm-10.402 26.583a5.358 5.358 0 01-5.064-7.096 352.007 352.007 0 015.004-13.612 5.357 5.357 0 016.935-3.031 5.35 5.35 0 013.032 6.935 329.78 329.78 0 00-4.844 13.193 5.358 5.358 0 01-5.063 3.61zm-11.36 41.26c-.366 0-.733-.035-1.102-.119a5.34 5.34 0 01-4.144-6.328 347.232 347.232 0 017.112-28.101 5.35 5.35 0 016.66-3.604 5.357 5.357 0 013.6 6.662 338.171 338.171 0 00-6.897 27.231 5.353 5.353 0 01-5.23 4.259zm-7.31 70.868a5.353 5.353 0 01-5.35-5.354c0-19.348 1.594-38.765 4.74-57.716a5.353 5.353 0 1110.56 1.758 342.743 342.743 0 00-4.597 55.958 5.354 5.354 0 01-5.353 5.354"/><path d="M426.667 776.452c-192.83 0-349.71-156.452-349.71-349.785h10.704c0 185.333 152.079 339.08 339.006 339.08 93.233 0 180.136-37.03 244.692-104.339l7.728 7.39c-66.599 69.435-156.242 107.654-252.42 107.654"/><path d="M649.68 653.165l50.543-17.153-10.41 52.35zm116.684-164.15c-.292 0-.584-.028-.885-.076a5.351 5.351 0 01-4.4-6.155 342.88 342.88 0 004.593-55.967 5.352 5.352 0 0110.704 0c0 19.363-1.59 38.787-4.739 57.723a5.358 5.358 0 01-5.273 4.475zm-9.637 41.693a5.352 5.352 0 01-5.135-6.88 337.674 337.674 0 006.897-27.23c.603-2.9 3.45-4.774 6.332-4.147a5.354 5.354 0 014.144 6.336 348.62 348.62 0 01-7.113 28.102 5.354 5.354 0 01-5.125 3.819zm-9.295 26.993a5.472 5.472 0 01-1.948-.362 5.357 5.357 0 01-3.039-6.935 332.56 332.56 0 004.848-13.193c.964-2.795 4.008-4.267 6.806-3.326a5.36 5.36 0 013.32 6.81 361.598 361.598 0 01-5 13.605 5.353 5.353 0 01-4.987 3.401zm-9.196 21.306c-.767 0-1.541-.16-2.28-.508a5.353 5.353 0 01-2.557-7.123 351.793 351.793 0 003.648-8.001 5.362 5.362 0 017.057-2.747 5.358 5.358 0 012.743 7.061 374.322 374.322 0 01-3.767 8.252 5.346 5.346 0 01-4.844 3.066"/><path d="M776.376 426.667h-10.704c0-189.334-152.079-338.928-339.005-338.928-93.111 0-179.932 37.022-244.472 104.178l-7.719-7.396c66.575-69.278 156.139-107.496 252.19-107.496 192.83 0 349.71 157.642 349.71 349.642"/><path d="M203.867 200.261l-50.558 17.104 10.462-52.336zm351.96 373.072H273.16V445.107l147.976-187.471 134.69 177.656zm-246.667-232h8v9.006l-8 9.061zm283.59 97.584L423.546 216.745l-95.718 119.996v-6.074h-28v42.332l-50.772 65.724c-4.267 5.414-4.642 13.269.777 17.534 4.137 3.255 9.995 3.464 12.661.983V584h304V449.455l4.876 4.524c2.455 3.248 6.922 4.954 10.699 4.954 2.627 0 5.63-.822 7.888-2.522 5.499-4.162 6.952-11.995 2.795-17.494"/><path d="M370.25 487.684l2.011-2.175c1.391-1.398 2.778-2.801 4.272-4.084 1.443-1.341 3.012-2.537 4.551-3.753 1.59-1.161 3.17-2.324 4.837-3.356 1.618-1.108 3.354-2.017 5.04-3.008 1.748-.867 3.455-1.83 5.248-2.585l2.674-1.175c.894-.376 1.814-.697 2.721-1.045 1.801-.728 3.659-1.282 5.499-1.875 1.84-.607 3.736-1.015 5.593-1.53 1.879-.442 3.772-.8 5.653-1.202l.067-.017.104-.015c1.873-.253 4.076-.833 6.083-1.499a50.645 50.645 0 006.026-2.424 57.092 57.092 0 005.746-3.12c1.854-1.16 3.673-2.382 5.394-3.742a40.838 40.838 0 002.563-2.074 43.113 43.113 0 002.456-2.198 41.234 41.234 0 002.36-2.322c.77-.79 1.544-1.581 2.255-2.425 1.484-1.637 2.84-3.39 4.198-5.143 1.29-1.806 2.591-3.604 3.747-5.506 1.24-1.848 2.259-3.834 3.365-5.764.994-2 2.071-3.959 2.939-6.022.45-1.021.924-2.036 1.355-3.068l1.228-3.121c.864-2.07 1.488-4.227 2.237-6.339.696-2.136 1.275-4.304 1.92-6.457l1.599-6.548 1.321-6.619 1.076-6.669s-20.17 17.56-53.168 21.237c-65.247 7.266-66.1 55.994-66.1 55.994-.428 15.493 2.733 27.377 7.737 36.5a72.768 72.768 0 013.478-4.592c.637-.754 1.26-1.52 1.916-2.259"/><path d="M476.388 380.804l-.787 6.712-1.045 6.69-1.321 6.643c-.55 2.188-1.042 4.398-1.65 6.579-.661 2.16-1.205 4.37-1.985 6.496l-1.108 3.216c-.39 1.063-.827 2.112-1.241 3.168-.791 2.133-1.798 4.175-2.724 6.252-1.043 2.021-2.004 4.095-3.19 6.047-1.104 1.996-2.358 3.909-3.606 5.826-1.324 1.864-2.648 3.739-4.119 5.502-.704.913-1.47 1.766-2.235 2.624a43.841 43.841 0 01-2.35 2.526 45.924 45.924 0 01-2.475 2.412 46.03 46.03 0 01-2.596 2.294c-1.755 1.508-3.621 2.885-5.532 4.196a61.796 61.796 0 01-5.979 3.589 55.526 55.526 0 01-6.385 2.892c-2.237.83-4.372 1.533-6.948 2l.167-.028c-1.78.467-3.572.885-5.339 1.38-1.748.572-3.525 1.032-5.241 1.68-1.715.639-3.447 1.23-5.11 1.987-.836.369-1.678.704-2.508 1.09l-2.446 1.21c-1.646.773-3.19 1.738-4.774 2.609-1.52.987-3.092 1.892-4.538 2.98-1.498 1.01-2.899 2.147-4.307 3.27-1.359 1.177-2.75 2.326-4.01 3.609-1.314 1.226-2.52 2.558-3.73 3.882l-1.739 2.05c-.565.697-1.097 1.417-1.648 2.121-1.07 1.44-2.101 2.9-3.049 4.415a63.616 63.616 0 00-1.576 2.601c16.4 21.473 43.533 23.124 43.533 23.124 61.996-.83 65.871-55.93 65.871-55.93 5.297-43.165-2.28-87.714-2.28-87.714"/><path d="M371.861 497.51a70.323 70.323 0 00-3.204 4.991 72.014 72.014 0 00-2.817 5.231 77.99 77.99 0 00-2.416 5.44 72.99 72.99 0 00-1.98 5.652c-.584 1.952-1.09 3.805-1.477 6.021a4.265 4.265 0 003.653 4.97 4.27 4.27 0 004.773-3.686l.007-.077c.195-1.499.583-3.31 1.012-4.983a65.134 65.134 0 011.543-5.081 65.764 65.764 0 011.956-4.97 65.794 65.794 0 012.334-4.823c.359-.683.738-1.359 1.122-2.028a54.049 54.049 0 01-4.408-6.792c-.032.045-.067.088-.098.136"/></symbol><symbol viewBox="0 0 56.48 56.48" id="mastercard" xmlns="http://www.w3.org/2000/svg"><path d="M15.051 25.812c-1.058 0-1.869.34-1.869.34l-.224 1.33s.669-.272 1.682-.272c.575 0 .995.064.995.531 0 .284-.051.389-.051.389s-.453-.037-.663-.037c-1.335 0-2.737.568-2.737 2.287 0 1.354.919 1.663 1.49 1.663 1.089 0 1.559-.706 1.583-.708l-.051.59h1.359l.606-4.25c-.001-1.805-1.574-1.863-2.12-1.863zm-.762 4.938c-.479 0-.604-.365-.604-.583 0-.422.229-.93 1.36-.93.264.001.292.028.336.036.03.26-.162 1.477-1.092 1.477zm5.67-3.513c.217 0 1.054.069 1.054.069l.195-1.362s-.542-.121-1.424-.121c-1.142 0-2.3.456-2.3 2.015 0 1.768 1.932 1.588 1.932 2.334 0 .496-.54.537-.956.537-.721 0-1.369-.246-1.371-.236l-.206 1.351c.037.01.437.188 1.732.188.347 0 2.334.09 2.334-1.961 0-1.918-1.839-1.539-1.839-2.31 0-.384.299-.504.849-.504zm3.247.174h.817l.197-1.452h-.77l.157-.9h-1.543c-.034.033-.911 5.076-.911 5.688 0 .911.511 1.315 1.23 1.308.563-.004 1.002-.16 1.157-.203l.193-1.312c-.106 0-.261.046-.398.046-.537 0-.596-.287-.562-.498l.433-2.677zm6.467-8.424h-2.754c-.37.5-.718 1.032-1.033 1.552h4.913a14.676 14.676 0 00-1.126-1.552zm21.488 17.458a.796.796 0 00-.075-.1.108.108 0 00-.043-.026.157.157 0 00.105-.046.134.134 0 00.016-.17.121.121 0 00-.064-.049.38.38 0 00-.127-.015h-.174v.505h.082v-.214h.047c.028 0 .051.006.064.018a.454.454 0 01.086.117l.044.08h.101l-.062-.1zm-.182-.182h-.1v-.152h.094a.24.24 0 01.08.009.079.079 0 01.035.026.069.069 0 01.012.039.07.07 0 01-.025.057c-.017.013-.05.021-.096.021zM31.634 22.062h-6.607c-.422.799-.702 1.403-.781 1.553h8.014a14.637 14.637 0 00-.626-1.553zm-21.341 2.521l-1.521 4.51-.079-4.51H6.441l-1.234 7.349h1.489l.939-5.54.138 5.54h1.063l1.983-5.54-.879 5.54h1.58l1.217-7.349zm29.776 1.229c-1.06 0-1.87.34-1.87.34l-.225 1.33s.67-.272 1.682-.272c.575 0 .996.064.996.531 0 .284-.053.389-.053.389s-.452-.037-.664-.037c-1.334 0-2.735.568-2.735 2.287 0 1.354.92 1.663 1.49 1.663 1.088 0 1.558-.706 1.583-.708l-.051.59h1.358l.606-4.25c.003-1.805-1.571-1.863-2.117-1.863zm-.76 4.938c-.48 0-.604-.365-.604-.583 0-.422.229-.93 1.36-.93.263.001.291.028.336.036.029.26-.164 1.477-1.092 1.477zm11.901.505a.422.422 0 00-.176-.174.466.466 0 00-.635.64.448.448 0 00.173.175.47.47 0 00.638-.641zm-.065.427a.397.397 0 01-.338.198.395.395 0 01-.392-.392c0-.067.017-.132.054-.195a.39.39 0 01.676.389z"/><path d="M50.963 31.648a.627.627 0 00-.074-.1.115.115 0 00-.043-.026.155.155 0 00.104-.046.13.13 0 00.016-.17.142.142 0 00-.062-.049.387.387 0 00-.128-.015H50.6v.504h.082v-.214h.047c.029 0 .052.006.066.017a.51.51 0 01.086.119l.043.079h.101l-.062-.099zm-.18-.185h-.099v-.153h.092c.04 0 .066.003.082.008a.08.08 0 01.033.027.074.074 0 01-.011.096c-.019.017-.05.022-.097.022zm-5.47-5.578c-.691 0-1.204.943-1.204.943l.138-.867h-1.438l-.963 5.982h1.584c.451-2.556.533-4.629 1.604-4.25.189-.988.371-1.371.576-1.788 0 .001-.096-.02-.297-.02zm3.98-1.294l-.333 2.065s-.58-.803-1.49-.803c-1.415.001-2.593 1.706-2.593 3.664 0 1.265.629 2.504 1.913 2.504.925 0 1.437-.645 1.437-.645l-.067.551h1.501l1.18-7.339-1.548.003zm-1.957 5.93c-.556 0-.816-.466-.816-1.198 0-1.197.537-1.986 1.216-1.986.554.001.839.382.839 1.28 0 .815-.403 1.904-1.239 1.904z"/><path d="M55.026 9.939H1.454C.65 9.939 0 10.59 0 11.393v33.695c0 .803.65 1.454 1.454 1.454h53.572c.804 0 1.454-.651 1.454-1.454V11.393c0-.803-.65-1.454-1.454-1.454zm-3.617 26.579a.435.435 0 01-.173.175.475.475 0 01-.466 0 .469.469 0 01.002-.815.494.494 0 01.231-.06c.079 0 .155.021.229.06a.425.425 0 01.175.174.477.477 0 01.002.466zm1.048-8.277c.002 8.005-6.484 14.497-14.49 14.499a14.436 14.436 0 01-9.73-3.749 14.435 14.435 0 01-9.717 3.745c-8.001 0-14.495-6.493-14.495-14.495 0-7.97 6.443-14.444 14.402-14.496h.093c3.738 0 7.146 1.418 9.718 3.745a14.443 14.443 0 019.722-3.748c8.006-.003 14.497 6.486 14.499 14.492-.002.002-.002.003-.002.007z"/><path d="M26.753 37.406c.459.562.945 1.098 1.482 1.584l.037-.031-.001-.001h.003a14.488 14.488 0 001.472-1.552h-2.993zm1.974-7.956s.203-1 .203-1.407c0-1.017-.506-2.257-2.2-2.257-1.552.001-2.701 1.673-2.701 3.563 0 2.181 1.439 2.699 2.666 2.699 1.132 0 1.63-.254 1.63-.254l.272-1.488s-.861.38-1.639.38c-1.657 0-1.367-1.236-1.367-1.236h3.136zm-1.992-2.279c.871 0 .71.979.71 1.057h-1.713c0-.101.162-1.057 1.003-1.057zm9.23-1.18c.785 0 1.416.441 1.416.441l.252-1.635s-.934-.378-1.738-.378c-1.781 0-3.514 1.546-3.514 4.449 0 1.925.935 3.196 2.777 3.196.52 0 1.35-.211 1.35-.211l.276-1.684s-.756.379-1.276.379c-1.096-.001-1.535-.837-1.535-1.733 0-1.823.942-2.824 1.992-2.824zm-11.147 8.37c.251.539.543 1.052.856 1.552h5.143c.312-.498.593-1.016.844-1.552h-6.843zm7.535-8.474c-.691 0-1.203.943-1.203.943l.139-.867h-1.437l-.963 5.982h1.584c.449-2.555.533-4.629 1.604-4.25.188-.989.369-1.372.574-1.79 0 0-.096-.02-.298-.018z"/></symbol><symbol viewBox="0 0 512 512" id="payment" xmlns="http://www.w3.org/2000/svg"><path d="M458.667 85.333H53.333C23.936 85.333 0 109.269 0 138.667v234.667c0 29.397 23.936 53.333 53.333 53.333h405.333c29.397 0 53.333-23.936 53.333-53.333V138.667c.001-29.398-23.935-53.334-53.332-53.334zm32 288c0 17.643-14.357 32-32 32H53.333c-17.643 0-32-14.357-32-32V138.667c0-17.643 14.357-32 32-32h405.333c17.643 0 32 14.357 32 32v234.666z"/><path d="M501.333 149.333H10.667C4.779 149.333 0 154.112 0 160v64c0 5.888 4.779 10.667 10.667 10.667h490.667c5.888 0 10.667-4.779 10.667-10.667v-64c-.001-5.888-4.78-10.667-10.668-10.667zm-10.666 64H21.333v-42.667h469.333v42.667zm-288 85.334h-128c-5.888 0-10.667 4.779-10.667 10.667S68.779 320 74.667 320h128c5.888 0 10.667-4.779 10.667-10.667s-4.779-10.666-10.667-10.666zm0 42.666h-128C68.779 341.333 64 346.112 64 352s4.779 10.667 10.667 10.667h128c5.888 0 10.667-4.779 10.667-10.667-.001-5.888-4.779-10.667-10.667-10.667zm213.333-64h-21.333c-17.643 0-32 14.357-32 32v21.333c0 17.643 14.357 32 32 32H416c17.643 0 32-14.357 32-32v-21.333c0-17.642-14.357-32-32-32zm10.667 53.334c0 5.888-4.779 10.667-10.667 10.667h-21.333c-5.888 0-10.667-4.779-10.667-10.667v-21.333c0-5.888 4.779-10.667 10.667-10.667H416c5.888 0 10.667 4.779 10.667 10.667v21.333z"/></symbol><symbol viewBox="0 0 16 16" id="play" xmlns="http://www.w3.org/2000/svg"><path d="M8 1c3.9 0 7 3.1 7 7s-3.1 7-7 7-7-3.1-7-7 3.1-7 7-7zm0-1C3.6 0 0 3.6 0 8s3.6 8 8 8 8-3.6 8-8-3.6-8-8-8z"/><path d="M6 4v8l6-4z"/></symbol><symbol viewBox="0 0 511.998 511.998" id="register" xmlns="http://www.w3.org/2000/svg"><path d="M389.688 30.963h-72.885v14.771h72.885c5.591.001 10.14 4.549 10.14 10.141a9.983 9.983 0 01-1.112 4.612l13.135 6.755a24.962 24.962 0 002.747-11.367c.001-13.737-11.174-24.912-24.91-24.912zm-112.543.001h18.351v14.771h-18.351zM91.695 163.135h260.956v14.771H91.695zm0 269.247h260.956v14.771H91.695zm347.724-264.46l-10.445 10.444 9.184 9.185-30.329 30.329 10.444 10.445 40.774-40.774zm-50.669 69.046l9.838-9.838 10.444 10.444-9.838 9.838z"/><path d="M500.074 124.633l-5.464-5.464c-15.873-15.874-41.704-15.874-57.578 0l-5.341 5.341-10.445 10.444-27.072 27.072v-56.217c25.554-2.279 45.658-23.797 45.658-49.934 0-27.65-22.496-50.146-50.145-50.146H50.145C22.496 5.729 0 28.224 0 55.874v399.255h42.76v51.141h351.416V288.11l90.113-90.113 7.892-7.893 2.551-2.551 5.341-5.341c7.69-7.69 11.925-17.913 11.925-28.788s-4.233-21.102-11.924-28.791zM85.65 20.5h304.038c19.506 0 35.374 15.869 35.374 35.375s-15.869 35.374-35.374 35.374H85.65c9.042-9.075 14.641-21.583 14.641-35.374 0-13.793-5.598-26.3-14.641-35.375zM42.76 91.248v349.11H14.771V55.874c0-19.506 15.87-35.375 35.375-35.375 19.505 0 35.374 15.87 35.374 35.375 0 19.506-15.87 35.374-35.374 35.374H42.76zm336.646 400.251H57.53V106.02h321.875v70.776l-32.022 32.021H91.692v14.771h240.922l-30.915 30.915H91.692v14.771h195.237l-30.914 30.914H91.692v14.771h149.553l-2.577 2.577-8.401 28.338H91.692v14.771h134.197l-9.165 30.915H91.692v14.771h260.953V391.56h-87.977l37.042-10.98 19.933-19.933h31.001v-14.771h-16.23l42.992-42.992v188.615zM248.768 335.428l35.047 35.047-49.813 14.767 14.766-49.814zm49.044 28.156l-42.153-42.153 176.032-176.032 42.153 42.153-176.032 176.032zm191.819-191.818l-5.341 5.341-42.153-42.153 5.341-5.341c10.115-10.115 26.573-10.115 36.689 0l5.464 5.464c4.9 4.9 7.599 11.415 7.599 18.344-.001 6.93-2.7 13.445-7.599 18.345z"/></symbol><symbol viewBox="0 0 306 306" id="right" xmlns="http://www.w3.org/2000/svg"><path d="M58.65 267.75L175.95 153 58.65 35.7 94.35 0l153 153-153 153z"/></symbol><symbol viewBox="0 0 512 512" id="search" xmlns="http://www.w3.org/2000/svg"><path d="M310 190c-5.52 0-10 4.48-10 10s4.48 10 10 10 10-4.48 10-10-4.48-10-10-10z"/><path d="M500.281 443.719l-133.48-133.48C388.546 277.485 400 239.555 400 200 400 89.72 310.28 0 200 0S0 89.72 0 200s89.72 200 200 200c39.556 0 77.486-11.455 110.239-33.198l36.895 36.895.016.016 96.568 96.568C451.276 507.838 461.319 512 472 512c10.681 0 20.724-4.162 28.278-11.716C507.837 492.731 512 482.687 512 472s-4.163-20.731-11.719-28.281zm-194.745-97.992l-.002.002C274.667 368.149 238.175 380 200 380c-99.252 0-180-80.748-180-180S100.748 20 200 20s180 80.748 180 180c0 38.175-11.851 74.667-34.272 105.535a180.872 180.872 0 01-40.192 40.192zm20.98 9.066a200.674 200.674 0 0028.277-28.277l28.371 28.371a242.733 242.733 0 01-28.277 28.277l-28.371-28.371zm159.623 131.346c-3.78 3.78-8.801 5.861-14.139 5.861s-10.359-2.081-14.139-5.861l-88.795-88.795a262.775 262.775 0 0028.277-28.277l88.798 88.798A19.846 19.846 0 01492 472a19.856 19.856 0 01-5.861 14.139z"/><path d="M200 40c-88.225 0-160 71.775-160 160s71.775 160 160 160 160-71.775 160-160S288.225 40 200 40zm0 300c-77.196 0-140-62.804-140-140S122.804 60 200 60s140 62.804 140 140-62.804 140-140 140z"/><path d="M312.065 157.073c-8.611-22.412-23.604-41.574-43.36-55.413C248.479 87.49 224.721 80 200 80c-5.522 0-10 4.478-10 10s4.478 10 10 10c41.099 0 78.631 25.818 93.396 64.247a10.003 10.003 0 009.337 6.416 9.978 9.978 0 003.584-.668c5.155-1.981 7.729-7.766 5.748-12.922z"/></symbol><symbol viewBox="0 0 211.405 175.066" id="tw" xmlns="http://www.w3.org/2000/svg"><path d="M209.647 20.455a4.006 4.006 0 00-4.658.123c-1.795 1.361-4.717 2.441-7.862 3.273 8.19-9.175 8.366-15.302 8.278-16.713a4 4 0 00-6.344-2.984c-9.21 6.696-18.386 8.11-23.844 8.252C166.843 4.392 155.963 0 144.39 0c-24.783 0-44.945 20.432-44.945 45.545 0 2.158.15 4.316.451 6.451-42.951-.486-77.83-41.64-78.19-42.07a4 4 0 00-6.537.564c-12.36 21.444-4.09 40.278 3.471 51.06-1.338-.712-2.422-1.415-3.068-1.892a4.004 4.004 0 00-4.154-.38 4.004 4.004 0 00-2.235 3.524C8.848 83.234 18.684 94.94 27.93 101.41a4.033 4.033 0 00-3.34 1.272 4.002 4.002 0 00-.884 3.876c6.387 20.909 22.072 28.012 32.053 30.422-20.522 15.975-50.72 10.834-51.053 10.776a4.001 4.001 0 00-3.133 7.117c21.66 16.531 47.566 20.193 66.281 20.193 14.155-.002 24.2-2.098 25.16-2.306 94.791-22.463 97.46-109.292 97.243-123.522 17.794-16.549 20.576-22.852 21.005-24.41a4.002 4.002 0 00-1.615-4.373zm-26.152 24.14a4.007 4.007 0 00-1.282 3.211c.252 3.842 5.1 94.387-90.968 117.153-.436.092-38.623 8.06-71.729-8.34 13.987-.389 34.043-4.053 48.016-19.74a4 4 0 00-2.986-6.66h-.041c-.2.127-21.206-.024-30.82-20.006 3.872.219 8.648-.02 12.45-1.772a4 4 0 00-.851-7.547c-1.076-.226-24.459-5.455-27.73-30.964 3.548 1.55 8.085 2.82 12.577 2.134a3.998 3.998 0 003.243-2.84 4.005 4.005 0 00-1.219-4.138c-1-.871-22.961-20.389-12.549-45.559C30.91 31.387 64.391 62.21 104.954 59.88a4.004 4.004 0 003.648-4.969 38.518 38.518 0 01-1.158-9.365C107.444 24.842 124.018 8 144.389 8c9.965 0 19.313 3.976 26.317 11.2a4 4 0 002.803 1.214c4.238.058 11.208-.44 19.08-3.596-2.272 2.826-5.608 6.217-10.516 10.07a4.003 4.003 0 00-1.254 4.604c.644 1.646 2.307 2.686 4.045 2.53a90.735 90.735 0 0011.057-1.657c-2.926 3.156-6.938 7.182-12.426 12.23z"/></symbol><symbol viewBox="0 0 47.834 47.834" id="visa" xmlns="http://www.w3.org/2000/svg"><path d="M19.153 16.799l-2.431 14.266h3.888l2.433-14.266zm-5.691.016l-3.808 9.729-.406-1.469c-.751-1.77-2.883-4.312-5.386-5.914l3.482 11.897 4.114-.007 6.123-14.239-4.119.003z"/><path d="M7.772 17.836c-.226-.869-.881-1.128-1.694-1.159H.05l-.05.284c4.691 1.138 7.795 3.88 9.083 7.177l-1.311-6.302zm23.151 1.698a7.178 7.178 0 012.91.546l.351.165.526-3.092c-.77-.289-1.977-.599-3.483-.599-3.842 0-6.55 1.935-6.571 4.708-.025 2.049 1.929 3.193 3.405 3.876 1.515.7 2.023 1.145 2.016 1.77-.012.955-1.208 1.393-2.325 1.393-1.557 0-2.384-.215-3.661-.747l-.501-.228-.547 3.193c.91.399 2.589.742 4.332.76 4.087 0 6.743-1.912 6.771-4.875.017-1.621-1.02-2.858-3.267-3.873-1.36-.662-2.192-1.102-2.184-1.77 0-.593.706-1.227 2.228-1.227zm13.765-2.719h-3.004c-.933 0-1.627.254-2.037 1.184l-5.773 13.074h4.083s.666-1.758.817-2.143l4.979.006c.116.498.474 2.137.474 2.137h3.607l-3.146-14.258zm-4.795 9.195c.32-.819 1.549-3.987 1.549-3.987-.021.039.317-.825.518-1.362l.262 1.23.901 4.119h-3.23z"/></symbol><symbol viewBox="0 0 548.358 548.358" id="vk" xmlns="http://www.w3.org/2000/svg"><path d="M545.451 400.298c-.664-1.431-1.283-2.618-1.858-3.569-9.514-17.135-27.695-38.167-54.532-63.102l-.567-.571-.284-.28-.287-.287h-.288c-12.18-11.611-19.893-19.418-23.123-23.415-5.91-7.614-7.234-15.321-4.004-23.13 2.282-5.9 10.854-18.36 25.696-37.397 7.807-10.089 13.99-18.175 18.556-24.267 32.931-43.78 47.208-71.756 42.828-83.939l-1.701-2.847c-1.143-1.714-4.093-3.282-8.846-4.712-4.764-1.427-10.853-1.663-18.278-.712l-82.224.568c-1.332-.472-3.234-.428-5.712.144l-3.713.859-1.431.715-1.136.859c-.952.568-1.999 1.567-3.142 2.995-1.137 1.423-2.088 3.093-2.848 4.996-8.952 23.031-19.13 44.444-30.553 64.238-7.043 11.803-13.511 22.032-19.418 30.693-5.899 8.658-10.848 15.037-14.842 19.126-4 4.093-7.61 7.372-10.852 9.849-3.237 2.478-5.708 3.525-7.419 3.142-1.715-.383-3.33-.763-4.859-1.143-2.663-1.714-4.805-4.045-6.42-6.995-1.622-2.95-2.714-6.663-3.285-11.136-.568-4.476-.904-8.326-1-11.563-.089-3.233-.048-7.806.145-13.706.198-5.903.287-9.897.287-11.991 0-7.234.141-15.085.424-23.555.288-8.47.521-15.181.716-20.125.194-4.949.284-10.185.284-15.705s-.336-9.849-1-12.991a44.442 44.442 0 00-2.99-9.137c-1.335-2.95-3.289-5.232-5.853-6.852-2.569-1.618-5.763-2.902-9.564-3.856-10.089-2.283-22.936-3.518-38.547-3.71-35.401-.38-58.148 1.906-68.236 6.855-3.997 2.091-7.614 4.948-10.848 8.562-3.427 4.189-3.905 6.475-1.431 6.851 11.422 1.711 19.508 5.804 24.267 12.275l1.715 3.429c1.334 2.474 2.666 6.854 3.999 13.134 1.331 6.28 2.19 13.227 2.568 20.837.95 13.897.95 25.793 0 35.689-.953 9.9-1.853 17.607-2.712 23.127-.859 5.52-2.143 9.993-3.855 13.418-1.715 3.426-2.856 5.52-3.428 6.28-.571.76-1.047 1.239-1.425 1.427a21.387 21.387 0 01-7.71 1.431c-2.667 0-5.901-1.334-9.707-4-3.805-2.666-7.754-6.328-11.847-10.992-4.093-4.665-8.709-11.184-13.85-19.558-5.137-8.374-10.467-18.271-15.987-29.691l-4.567-8.282c-2.855-5.328-6.755-13.086-11.704-23.267-4.952-10.185-9.329-20.037-13.134-29.554-1.521-3.997-3.806-7.04-6.851-9.134l-1.429-.859c-.95-.76-2.475-1.567-4.567-2.427a30.301 30.301 0 00-6.567-1.854l-78.229.568c-7.994 0-13.418 1.811-16.274 5.428l-1.143 1.711c-.571.953-.859 2.475-.859 4.57 0 2.094.571 4.664 1.714 7.707 11.42 26.84 23.839 52.725 37.257 77.659 13.418 24.934 25.078 45.019 34.973 60.237 9.897 15.229 19.985 29.602 30.264 43.112 10.279 13.515 17.083 22.176 20.412 25.981 3.333 3.812 5.951 6.662 7.854 8.565l7.139 6.851c4.568 4.569 11.276 10.041 20.127 16.416 8.853 6.379 18.654 12.659 29.408 18.85 10.756 6.181 23.269 11.225 37.546 15.126 14.275 3.905 28.169 5.472 41.684 4.716h32.834c6.659-.575 11.704-2.669 15.133-6.283l1.136-1.431c.764-1.136 1.479-2.901 2.139-5.276.668-2.379 1-5 1-7.851-.195-8.183.428-15.558 1.852-22.124 1.423-6.564 3.045-11.513 4.859-14.846 1.813-3.33 3.859-6.14 6.136-8.418 2.282-2.283 3.908-3.666 4.862-4.142.948-.479 1.705-.804 2.276-.999 4.568-1.522 9.944-.048 16.136 4.429 6.187 4.473 11.99 9.996 17.418 16.56 5.425 6.57 11.943 13.941 19.555 22.124 7.617 8.186 14.277 14.271 19.985 18.274l5.708 3.426c3.812 2.286 8.761 4.38 14.853 6.283 6.081 1.902 11.409 2.378 15.984 1.427l73.087-1.14c7.229 0 12.854-1.197 16.844-3.572 3.998-2.379 6.373-5 7.139-7.851.764-2.854.805-6.092.145-9.712-.677-3.611-1.344-6.136-2.008-7.563z"/></symbol><symbol viewBox="0 0 49.888 49.888" id="webmoney" xmlns="http://www.w3.org/2000/svg"><path d="M45.903 25.934l1.17-1.058 1.058 1.17-1.171 1.058zm-2.724 1.3l1.561-1.406 1.406 1.562-1.561 1.406zm5.226-2.027l.78-.703.703.78-.78.703zm-4.585-4.102l1.172-1.055 1.055 1.172-1.172 1.055zm3.588 1.771l.779-.703.704.78-.779.702zm-42.175-.637l-.765 3.965h-.053l-1.042-3.965h-.667l-.974 3.965h-.053L.84 22.239H0l1.214 5.314h.81l.989-3.741h.053l1.019 3.741h.81l1.215-5.314zm36.836 2.29l1.563-1.407 1.406 1.562-1.563 1.407zm-1.115-2.663l1.562-1.406 1.406 1.562-1.562 1.406zm3.946 1.596l1.168-1.055 1.058 1.171-1.17 1.056zm1.504-2.902l.78-.703.703.78-.78.702zm-12.049 3.282l-.851 2.761h-.045l-.959-2.76h-.824l1.438 3.749c-.18.555-.494.959-1.004.959v.613c.861 0 1.318-.539 1.693-1.574l1.355-3.748h-.803zM9.542 25.547c.001-1.225-.576-1.83-1.513-1.83-1.124 0-1.701.823-1.701 1.963 0 1.185.518 1.964 1.776 1.964.539 0 .989-.15 1.326-.347v-.567c-.412.245-.787.389-1.191.389-.771 0-1.139-.396-1.139-1.297h2.442v-.275zm-2.427-.228c.082-.748.435-1.101.892-1.101.405 0 .787.313.824 1.101H7.115zM46.934 28.3l1.171-1.056 1.057 1.172-1.172 1.056zm-15.495-2.753c.002-1.225-.576-1.83-1.512-1.83-1.125 0-1.701.823-1.701 1.963 0 1.185.517 1.964 1.775 1.964.539 0 .987-.15 1.325-.347v-.567c-.411.245-.786.389-1.19.389-.771 0-1.14-.396-1.14-1.297h2.443v-.275zm-2.428-.228c.084-.748.437-1.101.894-1.101.403 0 .787.313.824 1.101h-1.718z"/><path d="M46.05 28.572l-1.527 1.408-2.578-2.869.717-.631-1.805-2.021.721-.632-1.832-2.019 2.859-2.574.908.994 1.533-1.368.906.939.604-.541a6.539 6.539 0 00-3.286-.881c-3.617 0-6.568 2.95-6.568 6.568 0 3.617 2.951 6.567 6.568 6.567a6.516 6.516 0 003.237-.856c.315-.178.602-.371.864-.574l-1.321-1.51zm-34.034-4.855c-.405 0-.787.157-1.013.277v-2.136l-.779.187v5.231c.45.239 1.064.367 1.462.367 1.087 0 1.761-.683 1.761-2.085 0-1.197-.502-1.841-1.431-1.841zm-.33 3.401c-.188 0-.449-.014-.689-.119v-2.451c.3-.165.518-.247.816-.247.502 0 .848.308.848 1.258 0 1.214-.42 1.559-.975 1.559zm14.607-3.403c-.862 0-1.574.352-1.911.554v3.282h.778v-2.967c.232-.135.615-.27.914-.27.385 0 .676.105.676.697v2.541h.779V24.84c0-.771-.338-1.123-1.236-1.125zm-7.794-1.476l-1.602 4.189h-.038l-1.679-4.189h-.906v5.314h.674V23.79h.067l1.529 3.763h.479l1.529-3.854h.067v3.854h.809v-5.314zm3.462 1.478c-.989 0-1.709.652-1.709 1.963 0 1.281.683 1.964 1.709 1.964 1.027 0 1.709-.683 1.709-1.964 0-1.312-.72-1.963-1.709-1.963zm0 3.401c-.532 0-.922-.41-.922-1.438 0-1.012.428-1.439.922-1.439.51 0 .922.427.922 1.439 0 1.027-.39 1.438-.922 1.438z"/></symbol><symbol viewBox="0 0 49.079 49.079" id="yandex" xmlns="http://www.w3.org/2000/svg"><path d="M49.061 25.294c-.065-.375-.381-.6-.838-.605-.141-.002-.281.012-.418-.003-.27-.028-.341.062-.339.276.013 1.05.009 2.099.005 3.146-.003.549-.539 1.113-1.183 1.256-2 .439-3.998.885-6 1.32a3.156 3.156 0 01-.691.072c-.1 0-.238-.076-.281-.15-.028-.049.06-.168.129-.229.091-.074.207-.133.326-.174.367-.131.74-.25 1.111-.373 1.485-.494 2.973-.982 4.456-1.479.669-.226 1.03-.672 1.041-1.235.034-1.824.017-3.648.009-5.474 0-.289-.15-.53-.494-.655-.396-.142-.744-.029-1.088.135a6103.037 6103.037 0 01-6.307 3.005c-.619.295-.964.722-.961 1.33.007 1.725.002 3.447.004 5.17 0 .086.009.174.036.256.207.586.744.922 1.486.922 1.479.004 2.963.002 4.443.002 1.475 0 2.945.002 4.42-.002.32 0 .615-.066.855-.264.311-.25.295-.568.295-.885.003-1.68.003-3.358.001-5.041a1.65 1.65 0 00-.017-.321zm-6.15-.539c.149-.387.474-.629.97-.691.328-.042.614.161.661.457.071.456-.499.986-1.062.984-.47 0-.732-.329-.569-.75zM7.612 18.087v1.579H6.43v-1.584h-.618v3.908h.637v-1.75h1.167v1.752h.629v-3.905h-.633zm15.721 10.757c-.186-.929-.892-1.493-2.019-1.586-.444-.034-.896-.006-1.375-.006v-2.473h-.964v6.876c.713 0 1.402.041 2.082-.011 1.019-.076 1.796-.481 2.16-1.312.212-.482.216-.984.116-1.488zm-1.491 1.042c-.179.76-.957 1.118-1.895.896 0-.844-.004-1.674.008-2.506 0-.055.096-.145.165-.158.938-.199 1.565.113 1.728.896.058.281.06.59-.006.872zM4.305 15.98c-.341 0-.68.001-1.02 0a1.741 1.741 0 00-1.205.437c-1.123.994-.828 2.882.666 3.285l-1.524 2.294c.213 0 .377-.011.537.003.212.019.321-.05.419-.207.374-.607.771-1.205 1.159-1.807.179-.276.201-.284.623-.203v2.195h.716v-5.7c0-.297-.001-.296-.371-.297zm-.365 3.172c-.487-.005-.995.116-1.366-.249-.425-.417-.546-.899-.389-1.428.013-.042.034-.082.051-.122.316-.727.733-.929 1.704-.808v2.607zm18.063 2.277c-1.061.354-1.793.034-1.985-.89a2.528 2.528 0 01.11-1.428c.236-.638.705-.828 1.485-.617.015.004.033-.003.06-.007l.245-.308c-.644-.423-1.527-.322-2.007.212-.371.412-.516.889-.563 1.39-.053.575.018 1.133.398 1.638.398.528 1.088.776 1.798.61.501-.118.557-.17.459-.6zM5.205 30.843v-6.062H1.584c-.05 1.029-.074 2.041-.156 3.051-.073.896-.271 1.775-.667 2.621-.131.279-.288.463-.688.396-.021-.003-.047.013-.073.023v2.224h1.081v-1.468h3.915V33.1h1.05v-2.257h-.841zm-1.173-.008h-2.37c.202-.506.449-1.004.599-1.521.301-1.039.299-2.105.307-3.168.002-.164 0-.33 0-.51h1.465l-.001 5.199zm11.349-9.353c-.183.053-.359.117-.543.154-.513.104-.879-.01-1.074-.333-.229-.378-.218-.784-.204-1.209h1.935c.042-.636-.036-1.232-.439-1.774-.354-.476-.967-.552-1.454-.161a1.851 1.851 0 00-.445.523 2.675 2.675 0 00-.346 1.677c.045.359.144.724.297 1.062.222.497.735.751 1.328.688a3.81 3.81 0 00.844-.205c.301-.104.309-.2.101-.422zm-1.5-2.866c.218-.271.578-.263.771.021.216.315.242.663.233 1.028h-1.348c.021-.382.094-.736.344-1.049zm3.279 6.293c-.042-.051-.095-.128-.148-.13-.319-.013-.639-.008-.992-.008v2.826h-2.07v-2.821h-1.104v6.902h1.118v-2.682c0-.443 0-.443.53-.443h1.534v3.127h1.122c.005-.076.013-.141.013-.203v-6.484c0-.029.014-.065-.003-.084zm.617-5.294c.386-.444.755-.897 1.13-1.346.046-.055.086-.113.15-.197-.121 0-.192.008-.259-.001-.274-.037-.441.052-.59.248-.329.432-.694.844-1.046 1.263-.04.047-.09.088-.186.181v-1.68h-.611v3.815h.62c0-.453-.01-.897.006-1.339.006-.152.076-.304.116-.456.119.073.17.138.215.206.319.479.634.958.956 1.434.042.063.114.148.182.157.182.023.369.008.594.008-.448-.682-.866-1.326-1.294-1.967-.081-.12-.087-.207.017-.326zm14.689 5.142c-.18-.006-.261.045-.325.182-.433.954-.877 1.903-1.318 2.854-.193.416-.393.832-.588 1.248l-.053-.008v-4.259h-1.117v6.912h1.097c.697-1.506 1.394-3.018 2.097-4.543v4.539h1.262v-6.92c-.363 0-.709.01-1.055-.005zm-21.151 5.936c-.343.106-.652.227-.978.294-1.059.217-1.751-.076-2.053-.844-.233-.59-.224-1.199-.234-1.842h3.456c-.048-.535-.053-1.057-.15-1.562-.123-.633-.367-1.24-.872-1.75-.447-.451-.985-.582-1.656-.4-.697.189-1.122.627-1.408 1.146-.838 1.523-.91 3.092-.268 4.674.193.478.52.894 1.064 1.16.912.449 2.387.293 3.312-.354l-.213-.522zm-2.743-4.895c.163-.229.38-.416.744-.399.356.019.567.205.71.447.316.543.369 1.125.366 1.729H8.017c.06-.639.172-1.238.555-1.777zm3.262-4.327v-3.389H9.791c0 .254.009.482-.001.711-.034.796-.063 1.593-.395 2.355-.082.188-.143.389-.46.347v1.23h.589v-.799h2.213v.795h.557v-1.232l-.46-.018zm-.645 0H9.813c.597-.924.516-1.917.559-2.908h.817v2.908zm13.178 3.301c0 2.314 0 4.611.003 6.909h1.021v-6.214h3.113v-.695h-4.137z"/></symbol></svg>